<svg width="519" height="882" viewBox="0 0 519 882" fill="none" xmlns="http://www.w3.org/2000/svg">
<path fill-rule="evenodd" clip-rule="evenodd" d="M85 0H0V121H24V882H497V121H518.5V0H433.5V44H372.5V0H287.5V44H234.5V0H149.5V44H85V0Z" fill="#C4C4C4"/>
<path fill-rule="evenodd" clip-rule="evenodd" d="M85 0H0V121H24V882H497V121H518.5V0H433.5V44H372.5V0H287.5V44H234.5V0H149.5V44H85V0Z" fill="url(#paint0_linear)"/>
<path fill-rule="evenodd" clip-rule="evenodd" d="M279 44V882H24V121H0V0H85V44H149.5V0H234.5V44H279Z" fill="url(#paint1_linear)"/>
<ellipse cx="270.5" cy="398.5" rx="90.5" ry="226.5" fill="url(#paint2_radial)"/>
<rect x="72.6843" y="190.102" width="133.737" height="103.463" rx="13" fill="#BFA7A7"/>
<rect x="91.4736" y="603.955" width="133.737" height="103.463" rx="13" fill="#BFA7A7"/>
<rect x="315.842" y="674.746" width="133.737" height="81.6816" rx="13" fill="#BFA7A7"/>
<rect x="226.316" y="350.742" width="74.0526" height="111.631" rx="13" fill="#BFA7A7"/>
<rect x="313.632" y="124.757" width="133.737" height="126.606" rx="13" fill="#BFA7A7"/>
<rect x="146.737" y="470.542" width="133.737" height="126.606" rx="13" fill="#BFA7A7"/>
<rect x="226.316" y="258.17" width="128.211" height="85.7657" rx="12" fill="#9A9696"/>
<rect x="236.263" y="576.728" width="128.211" height="85.7657" rx="12" fill="#9A9696"/>
<rect x="298.158" y="785.016" width="143.684" height="63.9839" rx="12" fill="#9A9696"/>
<rect x="218.579" y="88" width="81.7895" height="163.363" rx="12" fill="#9A9696"/>
<rect x="307" y="350.742" width="128.211" height="98.0179" rx="12" fill="#9A9696"/>
<rect x="131.263" y="290.843" width="87.3158" height="107.547" rx="15" fill="#5F5F5F"/>
<rect x="112.474" y="93.4454" width="87.3158" height="107.547" rx="15" fill="#5F5F5F"/>
<rect x="300.368" y="455.567" width="116.053" height="121.161" rx="15" fill="#5F5F5F"/>
<path fill-rule="evenodd" clip-rule="evenodd" d="M475 546.778H392.947C385.768 546.778 379.947 552.598 379.947 559.778V637.241C379.947 644.421 385.768 650.241 392.947 650.241H475V546.778Z" fill="#BFA7A7"/>
<path fill-rule="evenodd" clip-rule="evenodd" d="M55 554.251C57.2255 555.558 59.818 556.308 62.5856 556.308H116.263C124.548 556.308 131.263 549.592 131.263 541.308V463.76C131.263 455.476 124.548 448.76 116.263 448.76H62.5856C59.818 448.76 57.2255 449.51 55 450.817V554.251Z" fill="#5F5F5F"/>
<path fill-rule="evenodd" clip-rule="evenodd" d="M467.263 258.17H388.632C382.004 258.17 376.632 263.543 376.632 270.17V331.936C376.632 338.563 382.004 343.936 388.632 343.936H467.263V258.17Z" fill="#9A9696"/>
<path fill-rule="evenodd" clip-rule="evenodd" d="M55 431.063H106.105C113.285 431.063 119.105 425.242 119.105 418.063V340.599C119.105 333.42 113.285 327.599 106.105 327.599H55V431.063Z" fill="#BFA7A7"/>
<path fill-rule="evenodd" clip-rule="evenodd" d="M55 849H135.053C143.337 849 150.053 842.284 150.053 834V742.839C150.053 734.555 143.337 727.839 135.053 727.839H55V849Z" fill="#5F5F5F"/>
<rect x="163" y="748" width="201" height="118" fill="black"/>
<ellipse cx="263.5" cy="736" rx="100.5" ry="96" fill="#040404"/>
<rect x="355" y="190" width="61" height="59" fill="black"/>
<ellipse cx="385.5" cy="184" rx="30.5" ry="48" fill="#040404"/>
<rect x="110" y="192" width="61" height="59" fill="black"/>
<ellipse cx="140.5" cy="186" rx="30.5" ry="48" fill="#040404"/>
<defs>
<linearGradient id="paint0_linear" x1="921.837" y1="530" x2="-18" y2="530" gradientUnits="userSpaceOnUse">
<stop offset="0.393633" stop-color="#737171"/>
<stop offset="0.683647" stop-color="#464646" stop-opacity="0"/>
</linearGradient>
<linearGradient id="paint1_linear" x1="-7" y1="460" x2="279" y2="460.5" gradientUnits="userSpaceOnUse">
<stop stop-color="#7C7C7C"/>
<stop offset="1" stop-color="#C4C4C4" stop-opacity="0"/>
</linearGradient>
<radialGradient id="paint2_radial" cx="0" cy="0" r="1" gradientUnits="userSpaceOnUse" gradientTransform="translate(270.5 398.5) rotate(90) scale(226.5 90.5)">
<stop stop-color="white"/>
<stop offset="1" stop-color="white" stop-opacity="0"/>
</radialGradient>
</defs>
</svg>
